<svg width="32" height="32" viewBox="0 0 32 32" fill="none" xmlns="http://www.w3.org/2000/svg">
<g clip-path="url(#clip0_1222_10274)">
<path d="M4.14839 18.9864C4.14839 21.1367 4.54124 22.9149 5.32693 24.3208L3.81757 25.6648C2.85268 24.7826 2.06698 23.7006 1.46047 22.4186C0.867755 21.1229 0.571395 19.71 0.571395 18.18C0.571395 15.6575 1.12965 13.3693 2.24617 11.3155C3.36269 9.26164 4.96855 7.50416 7.06374 6.04304L8.42837 7.59376C7.03617 9.09623 5.97479 10.8606 5.24423 12.8869C4.51367 14.9132 4.14839 16.9463 4.14839 18.9864ZM25.3189 10.4884C25.0433 12.0736 24.5677 13.2384 23.8923 13.9827C23.2168 14.7133 22.2313 15.113 20.9356 15.1819L21.2457 13.4245C21.673 13.3969 22.0245 13.2315 22.3002 12.9282C22.5897 12.6112 22.7826 12.1701 22.8791 11.605H21.5352L22.1761 7.9039L25.7738 7.9039L25.3189 10.4884ZM27.4324 12.8249C27.4324 10.6883 27.0327 8.91015 26.2332 7.49038L27.7633 6.12574C28.7281 7.00793 29.507 8.09688 30.0997 9.39259C30.7062 10.6745 31.0094 12.0874 31.0094 13.6312C31.0094 16.1399 30.4512 18.4212 29.3347 20.4751C28.2181 22.5289 26.6123 24.2864 24.5171 25.7475L23.1525 24.2175C24.5447 22.7012 25.606 20.9299 26.3366 18.9037C27.0672 16.8774 27.4324 14.8511 27.4324 12.8249Z" fill="white"/>
<path d="M19.7935 22.6667H15.3895L12.3914 16.4225L10.7167 17.9526L9.86893 22.6667H5.94044L8.52497 7.9039H12.4535L11.5023 13.2177L17.0229 7.9039L21.6957 7.9039L15.4308 13.6726L19.7935 22.6667Z" fill="#FF6A00"/>
</g>
<defs>
<clipPath id="clip0_1222_10274">
<rect width="32" height="32" fill="white"/>
</clipPath>
</defs>
</svg>
